<svg xmlns="http://www.w3.org/2000/svg" width="16" height="16" viewBox="0 0 16 16" fill="none">
  <g id="vuesax/bulk/chart">
    <g id="vuesax/bulk/chart_2">
      <g id="chart">
        <path id="Vector" d="M14.6667 14.6667H1.33337C1.06004 14.6667 0.833374 14.4401 0.833374 14.1667C0.833374 13.8934 1.06004 13.6667 1.33337 13.6667H14.6667C14.94 13.6667 15.1667 13.8934 15.1667 14.1667C15.1667 14.4401 14.94 14.6667 14.6667 14.6667Z" fill="#18181B" />
        <path id="Vector_2" d="M6.5 2.66659V14.6666H9.5V2.66659C9.5 1.93325 9.2 1.33325 8.3 1.33325H7.7C6.8 1.33325 6.5 1.93325 6.5 2.66659Z" fill="#18181B" />
        <path id="Vector_3" opacity="0.4" d="M2 6.66659V14.6666H4.66667V6.66659C4.66667 5.93325 4.4 5.33325 3.6 5.33325H3.06667C2.26667 5.33325 2 5.93325 2 6.66659Z" fill="#18181B" />
        <path id="Vector_4" opacity="0.4" d="M11.3334 10.0001V14.6667H14V10.0001C14 9.26675 13.7334 8.66675 12.9334 8.66675H12.4C11.6 8.66675 11.3334 9.26675 11.3334 10.0001Z" fill="#18181B" />
      </g>
    </g>
  </g>
</svg>