<svg xmlns="http://www.w3.org/2000/svg" width="10" height="10" viewBox="0 0 10 10" fill="none">
  <g id="vuesax/outline/arrow-right">
    <g id="vuesax/outline/arrow-right_2">
      <g id="arrow-right">
        <path id="Vector" d="M3.71246 8.61239C3.63329 8.61239 3.55413 8.58322 3.49163 8.52072C3.37079 8.39989 3.37079 8.19989 3.49163 8.07905L6.20829 5.36239C6.40829 5.16239 6.40829 4.83739 6.20829 4.63739L3.49163 1.92072C3.37079 1.79989 3.37079 1.59989 3.49163 1.47905C3.61246 1.35822 3.81246 1.35822 3.93329 1.47905L6.64996 4.19572C6.86246 4.40822 6.98329 4.69572 6.98329 4.99989C6.98329 5.30405 6.86663 5.59155 6.64996 5.80405L3.93329 8.52072C3.87079 8.57905 3.79163 8.61239 3.71246 8.61239Z" fill="#18181B" />
      </g>
    </g>
  </g>
</svg>