<svg xmlns="http://www.w3.org/2000/svg" width="14" height="14" viewBox="0 0 14 14" fill="none">
  <g id="vuesax/linear/empty-wallet">
    <g id="vuesax/linear/empty-wallet_2">
      <g id="Group">
        <path id="Vector" d="M10.5234 7.90432C10.2784 8.14349 10.1384 8.48766 10.1734 8.85516C10.2259 9.48516 10.8034 9.94599 11.4334 9.94599H12.5417V10.6402C12.5417 11.8477 11.5559 12.8335 10.3484 12.8335H3.65171C2.44421 12.8335 1.45837 11.8477 1.45837 10.6402V6.71434C1.45837 5.50684 2.44421 4.521 3.65171 4.521H10.3484C11.5559 4.521 12.5417 5.50684 12.5417 6.71434V7.55434H11.3634C11.0367 7.55434 10.7392 7.68266 10.5234 7.90432Z" stroke="#18181B" stroke-linecap="round" stroke-linejoin="round" />
        <path id="Vector_2" d="M1.45837 7.23926V4.57345C1.45837 3.87929 1.88421 3.26093 2.53171 3.01593L7.16337 1.26593C7.88671 0.991763 8.66254 1.52845 8.66254 2.30428V4.52094" stroke="#18181B" stroke-linecap="round" stroke-linejoin="round" />
      </g>
      <path id="Vector_3" d="M13.1593 8.14918V9.35088C13.1593 9.67171 12.9027 9.93419 12.576 9.94585H11.4327C10.8027 9.94585 10.2252 9.48502 10.1727 8.85502C10.1377 8.48752 10.2777 8.14335 10.5227 7.90419C10.7385 7.68252 11.036 7.5542 11.3627 7.5542H12.576C12.9027 7.56587 13.1593 7.82834 13.1593 8.14918Z" stroke="#18181B" stroke-linecap="round" stroke-linejoin="round" />
      <path id="Vector_4" d="M4.08337 7H8.16671" stroke="#18181B" stroke-linecap="round" stroke-linejoin="round" />
    </g>
  </g>
</svg>