<svg xmlns="http://www.w3.org/2000/svg" width="18" height="18" viewBox="0 0 18 18" fill="none">
  <g id="vuesax/bulk/percentage-circle">
    <g id="vuesax/bulk/percentage-circle_2">
      <g id="percentage-circle">
        <path id="Vector" opacity="0.4" d="M9 16.5C13.1421 16.5 16.5 13.1421 16.5 9C16.5 4.85786 13.1421 1.5 9 1.5C4.85786 1.5 1.5 4.85786 1.5 9C1.5 13.1421 4.85786 16.5 9 16.5Z" fill="#FF4438" />
        <g id="Group">
          <g id="Group_2">
            <path id="Vector_2" d="M6.24007 12.0151C6.09757 12.0151 5.95507 11.9626 5.84257 11.8501C5.62507 11.6326 5.62507 11.2726 5.84257 11.0551L10.7551 6.14262C10.9726 5.92512 11.3326 5.92512 11.5501 6.14262C11.7676 6.36012 11.7676 6.72012 11.5501 6.93762L6.63757 11.8501C6.52507 11.9626 6.38257 12.0151 6.24007 12.0151Z" fill="#FF4438" />
          </g>
          <path id="Vector_3" d="M6.54751 5.74512C5.94001 5.74512 5.4375 6.24013 5.4375 6.85513C5.4375 7.46263 5.93251 7.96511 6.54751 7.96511C7.15501 7.96511 7.65749 7.47013 7.65749 6.85513C7.64999 6.24013 7.15501 5.74512 6.54751 5.74512Z" fill="#FF4438" />
          <path id="Vector_4" d="M11.4525 10.0427C10.845 10.0427 10.3425 10.5377 10.3425 11.1527C10.3425 11.7602 10.8375 12.2627 11.4525 12.2627C12.06 12.2627 12.5625 11.7677 12.5625 11.1527C12.5625 10.5377 12.0675 10.0427 11.4525 10.0427Z" fill="#FF4438" />
        </g>
      </g>
    </g>
  </g>
</svg>