<svg xmlns="http://www.w3.org/2000/svg" width="18" height="18" viewBox="0 0 18 18" fill="none">
  <g id="vuesax/bulk/coin">
    <g id="vuesax/bulk/coin_2">
      <g id="coin">
        <path id="Vector" d="M13.875 9.48755V12.2625C13.875 14.6025 11.6925 16.5 9 16.5C6.3075 16.5 4.125 14.6025 4.125 12.2625V9.48755C4.125 11.8275 6.3075 13.5 9 13.5C11.6925 13.5 13.875 11.8275 13.875 9.48755Z" fill="#26B901" />
        <path id="Vector_2" opacity="0.4" d="M13.875 5.73755V9.48755C13.875 11.8275 11.6925 13.5 9 13.5C6.3075 13.5 4.125 11.8275 4.125 9.48755V5.73755C4.125 6.42005 4.3125 7.05005 4.6425 7.59005C5.445 8.91005 7.095 9.75005 9 9.75005C10.905 9.75005 12.555 8.91005 13.3575 7.59005C13.6875 7.05005 13.875 6.42005 13.875 5.73755Z" fill="#26B901" />
        <path id="Vector_3" d="M13.875 5.7375C13.875 6.42 13.6875 7.05 13.3575 7.59C12.555 8.91 10.905 9.75 9 9.75C7.095 9.75 5.445 8.91 4.6425 7.59C4.3125 7.05 4.125 6.42 4.125 5.7375C4.125 3.3975 6.3075 1.5 9 1.5C10.35 1.5 11.565 1.9725 12.45 2.7375C13.3275 3.51 13.875 4.5675 13.875 5.7375Z" fill="#26B901" />
      </g>
    </g>
  </g>
</svg>