<svg xmlns="http://www.w3.org/2000/svg" width="28" height="28" viewBox="0 0 28 28" fill="none">
  <g id="vuesax/bulk/money-time">
    <g id="vuesax/bulk/money-time_2">
      <g id="money-time">
        <path id="Vector" d="M5.83341 16.3333C3.25508 16.3333 1.16675 18.4216 1.16675 20.9999C1.16675 23.5783 3.25508 25.6666 5.83341 25.6666C8.41175 25.6666 10.5001 23.5783 10.5001 20.9999C10.5001 18.4216 8.41175 16.3333 5.83341 16.3333ZM7.00008 20.6266C7.00008 21.3382 6.61511 22.0149 6.00844 22.3766L5.12176 22.9133C4.98177 22.9949 4.83009 23.0416 4.67843 23.0416C4.38676 23.0416 4.09508 22.8899 3.93174 22.6216C3.68674 22.2133 3.81509 21.6649 4.23509 21.4199L5.12176 20.8833C5.20343 20.8366 5.26176 20.7316 5.26176 20.6383V19.5533C5.26176 19.0749 5.65843 18.6783 6.13676 18.6783C6.61509 18.6783 7.01176 19.0749 7.01176 19.5533V20.6266H7.00008Z" fill="#18181B" />
        <path id="Vector_2" opacity="0.4" d="M25.6666 10.5001V17.5001C25.6666 21.5834 23.3333 23.3334 19.8333 23.3334H9.85827C10.2666 22.6451 10.4999 21.8517 10.4999 21.0001C10.4999 18.4217 8.41159 16.3334 5.83325 16.3334C4.43325 16.3334 3.18492 16.9517 2.33325 17.9201V10.5001C2.33325 6.41675 4.66659 4.66675 8.16659 4.66675H19.8333C23.3333 4.66675 25.6666 6.41675 25.6666 10.5001Z" fill="#18181B" />
        <path id="Vector_3" d="M13.9999 16.9166C15.6107 16.9166 16.9166 15.6107 16.9166 13.9999C16.9166 12.3891 15.6107 11.0833 13.9999 11.0833C12.3891 11.0833 11.0833 12.3891 11.0833 13.9999C11.0833 15.6107 12.3891 16.9166 13.9999 16.9166Z" fill="#18181B" />
        <g id="Group">
          <path id="Vector_4" d="M21.5833 17.2084C21.1049 17.2084 20.7083 16.8117 20.7083 16.3334V11.6667C20.7083 11.1884 21.1049 10.7917 21.5833 10.7917C22.0616 10.7917 22.4583 11.1884 22.4583 11.6667V16.3334C22.4583 16.8117 22.0616 17.2084 21.5833 17.2084Z" fill="#18181B" />
        </g>
      </g>
    </g>
  </g>
</svg>