<svg xmlns="http://www.w3.org/2000/svg" width="28" height="28" viewBox="0 0 28 28" fill="none">
  <g id="vuesax/bulk/money-change">
    <g id="vuesax/bulk/money-change_2">
      <g id="money-change">
        <path id="Vector" opacity="0.4" d="M25.6666 10.5001V17.5001C25.6666 21.5834 23.3333 23.3334 19.8333 23.3334H11.3632C11.5616 22.7851 11.6666 22.2017 11.6666 21.5834C11.6666 18.6901 9.32159 16.3334 6.41659 16.3334C4.77159 16.3334 3.28992 17.1034 2.33325 18.2934V10.5001C2.33325 6.41675 4.66659 4.66675 8.16659 4.66675H19.8333C23.3333 4.66675 25.6666 6.41675 25.6666 10.5001Z" fill="#18181B" />
        <path id="Vector_2" d="M13.9999 16.9166C15.6107 16.9166 16.9166 15.6107 16.9166 13.9999C16.9166 12.3891 15.6107 11.0833 13.9999 11.0833C12.3891 11.0833 11.0833 12.3891 11.0833 13.9999C11.0833 15.6107 12.3891 16.9166 13.9999 16.9166Z" fill="#18181B" />
        <g id="Group">
          <path id="Vector_3" d="M21.5833 17.2084C21.1049 17.2084 20.7083 16.8117 20.7083 16.3334V11.6667C20.7083 11.1884 21.1049 10.7917 21.5833 10.7917C22.0616 10.7917 22.4583 11.1884 22.4583 11.6667V16.3334C22.4583 16.8117 22.0616 17.2084 21.5833 17.2084Z" fill="#18181B" />
        </g>
        <path id="Vector_4" d="M6.41675 16.3333C4.77175 16.3333 3.29008 17.1032 2.33341 18.2932C1.59841 19.1916 1.16675 20.3349 1.16675 21.5833C1.16675 24.4883 3.52341 26.8333 6.41675 26.8333C8.70341 26.8333 10.6517 25.3749 11.3634 23.3333C11.5617 22.7849 11.6667 22.2016 11.6667 21.5833C11.6667 18.6899 9.32175 16.3333 6.41675 16.3333ZM9.52005 23.8699C9.48505 23.9399 9.43839 24.0216 9.38006 24.0799L8.43506 25.0133C8.31839 25.1416 8.15505 25.1999 7.99172 25.1999C7.81672 25.1999 7.65344 25.1416 7.53677 25.0133C7.32677 24.8149 7.30341 24.4999 7.43174 24.2666H4.79506C3.95506 24.2666 3.26673 23.5782 3.26673 22.7266V22.5982C3.26673 22.2366 3.55839 21.9566 3.90839 21.9566C4.25839 21.9566 4.55011 22.2366 4.55011 22.5982V22.7266C4.55011 22.8666 4.65506 22.9833 4.79506 22.9833H7.43174C7.30341 22.7383 7.32677 22.4349 7.53677 22.2249C7.78177 21.9799 8.19006 21.9799 8.43506 22.2249L9.38006 23.1699C9.43839 23.2282 9.48505 23.2982 9.52005 23.3799C9.57838 23.5316 9.57838 23.7066 9.52005 23.8699ZM9.56676 20.5683C9.56676 20.9299 9.27511 21.2099 8.92511 21.2099C8.57511 21.2099 8.28339 20.9299 8.28339 20.5683V20.4399C8.28339 20.2999 8.17843 20.1832 8.03843 20.1832H5.40175C5.53009 20.4282 5.50672 20.7316 5.29672 20.9416C5.18006 21.0583 5.01678 21.1282 4.84178 21.1282C4.67844 21.1282 4.5151 21.0583 4.39844 20.9416L3.45344 19.9966C3.39511 19.9383 3.34845 19.8683 3.31345 19.7866C3.25511 19.6349 3.25511 19.4599 3.31345 19.2966C3.34845 19.2266 3.39511 19.1449 3.45344 19.0866L4.39844 18.1532C4.64344 17.8966 5.05172 17.8966 5.29672 18.1532C5.50672 18.3516 5.53009 18.6666 5.40175 18.8999H8.03843C8.87843 18.8999 9.56676 19.5883 9.56676 20.4399V20.5683Z" fill="#18181B" />
      </g>
    </g>
  </g>
</svg>