<svg xmlns="http://www.w3.org/2000/svg" width="28" height="28" viewBox="0 0 28 28" fill="none">
  <g id="vuesax/bulk/mobile">
    <g id="vuesax/bulk/mobile_2">
      <g id="mobile">
        <path id="Vector" opacity="0.4" d="M18.9467 2.33325H9.05341C5.83341 2.33325 4.66675 3.49992 4.66675 6.77825V21.2216C4.66675 24.4999 5.83341 25.6666 9.05341 25.6666H18.9351C22.1667 25.6666 23.3334 24.4999 23.3334 21.2216V6.77825C23.3334 3.49992 22.1667 2.33325 18.9467 2.33325Z" fill="#18181B" />
        <path id="Vector_2" d="M16.3334 7.29175H11.6667C11.1884 7.29175 10.7917 6.89508 10.7917 6.41675C10.7917 5.93841 11.1884 5.54175 11.6667 5.54175H16.3334C16.8117 5.54175 17.2084 5.93841 17.2084 6.41675C17.2084 6.89508 16.8117 7.29175 16.3334 7.29175Z" fill="#18181B" />
        <path id="Vector_3" d="M13.9999 22.5167C15.1275 22.5167 16.0416 21.6026 16.0416 20.475C16.0416 19.3474 15.1275 18.4333 13.9999 18.4333C12.8723 18.4333 11.9583 19.3474 11.9583 20.475C11.9583 21.6026 12.8723 22.5167 13.9999 22.5167Z" fill="#18181B" />
      </g>
    </g>
  </g>
</svg>