<svg xmlns="http://www.w3.org/2000/svg" width="28" height="28" viewBox="0 0 28 28" fill="none">
  <g id="vuesax/bulk/card-send">
    <g id="vuesax/bulk/card-send_2">
      <g id="card-send">
        <path id="Vector" d="M24.4651 1.16675H21.0351C19.5534 1.16675 18.6667 2.05341 18.6667 3.53508V6.96508C18.6667 8.44675 19.5534 9.33342 21.0351 9.33342H24.4651C25.9467 9.33342 26.8334 8.44675 26.8334 6.96508V3.53508C26.8334 2.05341 25.9467 1.16675 24.4651 1.16675ZM24.7217 5.02841C24.5817 5.16842 24.3951 5.23841 24.2084 5.23841C24.0217 5.23841 23.8351 5.16842 23.6951 5.02841L23.4851 4.81842V7.43175C23.4851 7.84008 23.1584 8.16675 22.7501 8.16675C22.3417 8.16675 22.0151 7.84008 22.0151 7.43175V4.81842L21.8051 5.02841C21.5251 5.30841 21.0584 5.30841 20.7784 5.02841C20.4984 4.74841 20.4984 4.28175 20.7784 4.00175L22.2367 2.54341C22.2951 2.48508 22.3767 2.43841 22.4584 2.40341C22.4817 2.39175 22.5051 2.39175 22.5284 2.38008C22.5867 2.35675 22.6451 2.34508 22.7151 2.34508C22.7384 2.34508 22.7617 2.34508 22.7851 2.34508C22.8667 2.34508 22.9367 2.35675 23.0184 2.39175C23.0301 2.39175 23.0301 2.39175 23.0417 2.39175C23.1234 2.42675 23.1934 2.47341 23.2517 2.53175C23.2634 2.54341 23.2634 2.54341 23.2751 2.54341L24.7334 4.00175C25.0134 4.28175 25.0134 4.74841 24.7217 5.02841Z" fill="#18181B" />
        <path id="Vector_2" opacity="0.4" d="M25.6666 9.06489V10.4999H2.33325V8.79655C2.33325 6.12489 4.50325 3.96655 7.17492 3.96655H18.6666V6.96489C18.6666 8.44655 19.5533 9.33322 21.0349 9.33322H24.4649C24.9316 9.33322 25.3283 9.25155 25.6666 9.06489Z" fill="#18181B" />
        <path id="Vector_3" d="M2.33325 10.5V19.2033C2.33325 21.875 4.50325 24.0333 7.17492 24.0333H20.8249C23.4966 24.0333 25.6666 21.875 25.6666 19.2033V10.5H2.33325ZM9.33325 20.125H6.99992C6.52159 20.125 6.12492 19.7283 6.12492 19.25C6.12492 18.7717 6.52159 18.375 6.99992 18.375H9.33325C9.81159 18.375 10.2083 18.7717 10.2083 19.25C10.2083 19.7283 9.81159 20.125 9.33325 20.125ZM16.9166 20.125H12.2499C11.7716 20.125 11.3749 19.7283 11.3749 19.25C11.3749 18.7717 11.7716 18.375 12.2499 18.375H16.9166C17.3949 18.375 17.7916 18.7717 17.7916 19.25C17.7916 19.7283 17.3949 20.125 16.9166 20.125Z" fill="#18181B" />
      </g>
    </g>
  </g>
</svg>