<svg width="179" height="190" viewBox="0 0 179 190" fill="none" xmlns="http://www.w3.org/2000/svg">
<g filter="url(#filter0_i_1_2123)">
<g clip-path="url(#clip0_1_2123)">
<rect width="179" height="190" rx="16" fill="white"/>
<path d="M5.04224 -15.2407H181.891V202.955H5.04224V-15.2407Z" fill="white"/>
<path d="M9.87109 123.611H64.1931V177.709H9.87109V123.611Z" fill="#18181B"/>
<path d="M9.87109 16.016H64.1931V70.114H9.87109V16.016Z" fill="#18181B"/>
<path d="M117.911 16.6171H171.63V70.114H117.911V16.6171Z" fill="#18181B"/>
<path d="M87.129 54.4855H94.3719V77.928H117.308V85.141H110.065V123.611H94.9755V115.797H79.2824V123.611H71.4359V100.168H49.1035V93.5563H64.193V85.7421H71.4359V77.3269H79.2824V70.1138H87.129V54.4855Z" fill="#18181B"/>
<path d="M133.001 107.983H140.848V115.797H148.091V108.584H163.784V115.797H171.63V123.611H156.541V131.425H148.694V138.638H155.937L156.541 139.239V146.452H163.784V138.638H171.63V147.054H164.387V154.267H171.63V162.081H163.784V154.267H148.091V139.239H133.001V146.452H117.912V154.267H125.155V169.294H117.308V177.108H110.065V169.895H102.219V161.48H117.308V154.868H110.065V146.452H117.308V139.239H110.065V131.425H117.912V138.638H125.155V123.611H117.912V108.584H125.758V115.797H133.001V107.983Z" fill="#18181B"/>
<path d="M18.3215 132.026H55.7434V169.294H18.3215V132.026Z" fill="#F9FBFC"/>
<path d="M125.758 24.4313H163.18V61.6988H125.758V24.4313Z" fill="#F9FBFC"/>
<path d="M18.3215 24.4313H55.7434V61.6988H18.3215V24.4313Z" fill="#F9FBFC"/>
<path d="M117.912 108.584H125.155V116.398H133.001V131.425H148.091V138.638H133.001V146.452H117.912V154.267H125.155V169.294H117.308V177.108H110.065V169.895H102.219V161.48H117.308V154.868H110.065V146.452H117.308V139.239H110.065V131.425H117.912V138.638H125.155V123.611H117.912V108.584Z" fill="#18181B"/>
<path d="M25.5641 77.327H33.4107V85.1412H40.6536V77.9281H63.5896V85.1412H48.5001V92.9553H40.6536V100.168L33.4107 100.77L32.8071 107.983H25.5641V100.77H9.87109V85.1412H17.7176V92.9553H25.5641V77.327Z" fill="#18181B"/>
<path d="M79.2818 31.6442H87.1283V39.4583H94.9749V31.6442H102.218V39.4583H110.064V70.1139H102.218V47.2725H87.1283V54.4856H79.2818V47.2725H71.4353V39.4583H79.2818V31.6442Z" fill="#18181B"/>
<path d="M71.4353 131.425H102.218V154.266H79.2818V146.452H71.4353V131.425Z" fill="#18181B"/>
<path d="M25.564 139.239H48.4999V162.081H25.564V139.239Z" fill="#18181B"/>
<path d="M133.001 31.6442H155.937V54.4856H133.001V31.6442Z" fill="#18181B"/>
<path d="M25.564 31.6442H48.4999V54.4856H25.564V31.6442Z" fill="#18181B"/>
<path d="M140.847 77.327H148.693V85.1412H163.783V77.327H171.629V92.9553H163.783V100.77H148.693V92.9553H140.847V77.327Z" fill="#18181B"/>
<path d="M41.257 77.327H64.193V85.1412H71.4359V85.7423H64.193V93.5564H49.1035V100.168H71.4359V100.77H48.4999V115.797H32.8069V108.584H25.564V107.983H32.8069V100.77L33.4105 100.168H40.6534V92.9553H48.4999V85.1412H63.5894V77.9281H41.257V77.327Z" fill="#18181B"/>
<path d="M125.155 123.611H125.758V139.239H117.912V154.267H125.155V169.294H117.308V177.108H110.065V169.895H102.219V161.48H117.308V154.868H110.065V146.452H117.308V139.239H110.065V131.425H117.912V138.638H125.155V123.611Z" fill="#18181B"/>
<path d="M163.783 138.638H171.63V147.053H164.387V154.266H171.63V162.08H163.783V154.266H148.694V139.239H156.54V146.452H163.783V138.638Z" fill="#18181B"/>
<path d="M148.694 108.584H163.783V115.797H171.63V123.611H156.54V115.797H148.694V108.584Z" fill="#18181B"/>
<path d="M72.0391 16.6171H94.3715V31.6443H87.1285V23.8301H72.0391V16.6171Z" fill="#18181B"/>
<path d="M125.155 123.611H125.758V139.239H117.912V162.081H102.822V169.294H110.065V169.895H102.219V161.48H117.308V154.868H110.065V146.452H117.308V139.239H110.065V131.425H117.912V138.638H125.155V123.611Z" fill="#18181B"/>
<path d="M133.001 116.398H140.847V123.611H148.09V130.824H133.001V116.398Z" fill="#FBFCFD"/>
<path d="M41.2569 100.77H48.4999V115.797H33.4104V108.584H41.2569V100.77Z" fill="#18181B"/>
<path d="M163.783 138.638H171.629V147.053H164.386V154.266H171.629V162.08H163.783V147.053H155.936V139.239H156.54V146.452H163.783V138.638Z" fill="#18181B"/>
<path d="M48.4998 85.1412H63.5892V92.9554H48.4998V85.1412Z" fill="#F4F8FA"/>
<path d="M117.911 85.1412H125.154V100.77H117.911V85.1412Z" fill="#18181B"/>
<path d="M148.694 162.081H155.937V177.108H148.694V162.081Z" fill="#18181B"/>
<path d="M94.3723 16.6171H94.9759V39.4585H87.1294V31.6443H94.3723V16.6171Z" fill="#18181B"/>
<path d="M163.784 169.293H171.63V177.709H163.784V169.293Z" fill="#18181B"/>
<path d="M133.001 169.293H140.847V177.108H133.001V169.293Z" fill="#18181B"/>
<path d="M79.283 162.081H87.1295V169.895H79.283V162.081Z" fill="#18181B"/>
<path d="M133.001 154.266H140.847V162.081H133.001V154.266Z" fill="#18181B"/>
<path d="M71.4353 154.266H79.2818V162.081H71.4353V154.266Z" fill="#18181B"/>
<path d="M133.001 107.983H140.847V115.797H133.001V107.983Z" fill="#18181B"/>
<path d="M133.001 92.9553H140.847V100.769H133.001V92.9553Z" fill="#18181B"/>
<path d="M71.4353 62.2996H79.2818V70.1137H71.4353V62.2996Z" fill="#18181B"/>
<path d="M148.694 123.611H155.937V131.425H148.694V123.611Z" fill="#18181B"/>
<path d="M110.065 147.053H117.308V154.267H110.065V147.053Z" fill="#18181B"/>
<path d="M164.386 139.239H171.629V146.452H164.386V139.239Z" fill="#18181B"/>
<path d="M79.283 139.239H86.5259V146.452H79.283V139.239Z" fill="#F9FBFC"/>
<path d="M110.065 131.425H117.308V138.638H110.065V131.425Z" fill="#18181B"/>
<path d="M148.694 116.398H155.937V123.611H148.694V116.398Z" fill="#FBFDFD"/>
<path d="M140.847 116.398H148.09V123.611H140.847V116.398Z" fill="#18181B"/>
<path d="M56.3462 108.584H63.5891V115.797H56.3462V108.584Z" fill="#18181B"/>
<path d="M33.4104 100.77H40.6533V107.983H33.4104V100.77Z" fill="#FCFDFD"/>
<path d="M102.822 16.6171H110.065V23.8301H102.822V16.6171Z" fill="#18181B"/>
<path d="M41.2571 93.5565H48.5V100.169H41.2571V93.5565Z" fill="#FDFDFE"/>
<path d="M164.386 154.868H171.026V161.48H164.386V154.868Z" fill="#18181B"/>
<path d="M40.6534 92.9553H48.4999V93.5564H41.257V100.168H48.4999V100.769H41.257V108.584H33.4105V115.797H32.8069V108.584H25.564V107.983H32.8069V100.769L33.4105 100.168H40.6534V92.9553ZM33.4105 100.769V107.983H40.6534V100.769H33.4105Z" fill="#18181B"/>
<path d="M148.09 131.425H148.694V138.638H155.937V139.239H148.694V154.266H148.09V139.239H133.001V138.638H148.09V131.425Z" fill="#18181B"/>
<path d="M80.6754 109.186V87.5858H85.0254L92.8554 96.9158L100.655 87.5858H105.035V109.186H101.045V93.3458L92.8554 103.096L84.6354 93.3758V109.186H80.6754Z" fill="white"/>
</g>
</g>
<defs>
<filter id="filter0_i_1_2123" x="0" y="0" width="179" height="194" filterUnits="userSpaceOnUse" color-interpolation-filters="sRGB">
<feFlood flood-opacity="0" result="BackgroundImageFix"/>
<feBlend mode="normal" in="SourceGraphic" in2="BackgroundImageFix" result="shape"/>
<feColorMatrix in="SourceAlpha" type="matrix" values="0 0 0 0 0 0 0 0 0 0 0 0 0 0 0 0 0 0 127 0" result="hardAlpha"/>
<feOffset dy="4"/>
<feGaussianBlur stdDeviation="2"/>
<feComposite in2="hardAlpha" operator="arithmetic" k2="-1" k3="1"/>
<feColorMatrix type="matrix" values="0 0 0 0 0 0 0 0 0 0 0 0 0 0 0 0 0 0 0.25 0"/>
<feBlend mode="normal" in2="shape" result="effect1_innerShadow_1_2123"/>
</filter>
<clipPath id="clip0_1_2123">
<rect width="179" height="190" rx="16" fill="white"/>
</clipPath>
</defs>
</svg>
