<svg preserveAspectRatio="none" width="100%" height="100%" overflow="visible" style="display: block;" viewBox="0 0 22 22" fill="none" xmlns="http://www.w3.org/2000/svg">
<g id="document-code">
<g id="Vector" opacity="0">
</g>
<path id="Vector_2" opacity="0.4" d="M19.25 6.41667V15.5833C19.25 18.3333 17.875 20.1667 14.6667 20.1667H7.33333C4.125 20.1667 2.75 18.3333 2.75 15.5833V6.41667C2.75 3.66667 4.125 1.83333 7.33333 1.83333H14.6667C17.875 1.83333 19.25 3.66667 19.25 6.41667Z" fill="var(--fill-0, #292D32)"/>
<g id="Group">
<path id="Vector_3" d="M16.9583 8.47917H15.125C13.7317 8.47917 12.6042 7.35167 12.6042 5.95833V4.125C12.6042 3.74917 12.9158 3.4375 13.2917 3.4375C13.6675 3.4375 13.9792 3.74917 13.9792 4.125V5.95833C13.9792 6.59083 14.4925 7.10417 15.125 7.10417H16.9583C17.3342 7.10417 17.6458 7.41583 17.6458 7.79167C17.6458 8.1675 17.3342 8.47917 16.9583 8.47917Z" fill="var(--fill-0, #292D32)"/>
</g>
<g id="Group_2">
<path id="Vector_4" d="M9.16667 16.2708C8.9925 16.2708 8.81834 16.2067 8.68084 16.0692L6.8475 14.2358C6.58167 13.97 6.58167 13.5299 6.8475 13.2641L8.68084 11.4308C8.94667 11.1649 9.38667 11.1649 9.6525 11.4308C9.91833 11.6966 9.91833 12.1367 9.6525 12.4025L8.305 13.75L9.6525 15.0974C9.91833 15.3633 9.91833 15.8033 9.6525 16.0692C9.515 16.2067 9.34083 16.2708 9.16667 16.2708Z" fill="var(--fill-0, #292D32)"/>
</g>
<g id="Group_3">
<path id="Vector_5" d="M12.8333 16.2708C12.6592 16.2708 12.485 16.2067 12.3475 16.0692C12.0817 15.8033 12.0817 15.3633 12.3475 15.0974L13.695 13.75L12.3475 12.4025C12.0817 12.1367 12.0817 11.6966 12.3475 11.4308C12.6133 11.1649 13.0533 11.1649 13.3192 11.4308L15.1525 13.2641C15.4183 13.5299 15.4183 13.97 15.1525 14.2358L13.3192 16.0692C13.1817 16.2067 13.0075 16.2708 12.8333 16.2708Z" fill="var(--fill-0, #292D32)"/>
</g>
</g>
</svg>
