<svg preserveAspectRatio="none" width="100%" height="100%" overflow="visible" style="display: block;" viewBox="0 0 22 22" fill="none" xmlns="http://www.w3.org/2000/svg">
<g id="briefcase">
<path id="Vector" d="M19.3316 6.3979C18.5525 5.53624 17.2508 5.1054 15.3625 5.1054H15.1425V5.06874C15.1425 3.52874 15.1425 1.62207 11.6958 1.62207H10.3025C6.85581 1.62207 6.85581 3.5379 6.85581 5.06874V5.11457H6.63581C4.73831 5.11457 3.44581 5.5454 2.66664 6.40707C1.75914 7.4154 1.78664 8.77207 1.87831 9.6979L1.88747 9.76207L1.97914 10.7246C1.98831 10.7337 2.00664 10.7521 2.02497 10.7612C2.32747 10.9629 2.63914 11.1646 2.96914 11.3479C3.09747 11.4304 3.23497 11.5037 3.37247 11.5771C4.93997 12.4387 6.66331 13.0162 8.41414 13.3004C8.49664 14.1621 8.87247 15.1704 10.88 15.1704C12.8875 15.1704 13.2816 14.1712 13.3458 13.2821C15.2158 12.9796 17.0216 12.3287 18.6533 11.3754C18.7083 11.3479 18.745 11.3204 18.7908 11.2929C19.2125 11.0546 19.6066 10.7979 19.9916 10.5137C20.01 10.5046 20.0283 10.4862 20.0375 10.4679L20.0741 10.1379L20.12 9.70707C20.1291 9.65207 20.1291 9.60624 20.1383 9.54207C20.2116 8.61624 20.1933 7.35124 19.3316 6.3979ZM11.9983 12.6771C11.9983 13.6487 11.9983 13.7954 10.8708 13.7954C9.7433 13.7954 9.74331 13.6212 9.74331 12.6862V11.5312H11.9983V12.6771ZM8.16664 5.1054V5.06874C8.16664 3.5104 8.16664 2.9329 10.3025 2.9329H11.6958C13.8316 2.9329 13.8316 3.51957 13.8316 5.06874V5.11457H8.16664V5.1054Z" fill="var(--fill-0, #212121)"/>
<path id="Vector_2" opacity="0.4" d="M18.7918 11.2754C18.746 11.3029 18.7001 11.3304 18.6543 11.3579C17.0226 12.3112 15.2168 12.9529 13.3468 13.2645C13.2735 14.1445 12.8885 15.1529 10.881 15.1529C8.87348 15.1529 8.48848 14.1537 8.41514 13.2829C6.66431 13.0079 4.94098 12.4304 3.37348 11.5595C3.23598 11.4862 3.09848 11.4129 2.97014 11.3304C2.64014 11.147 2.32848 10.9454 2.02598 10.7437C2.00764 10.7345 1.98931 10.7162 1.98014 10.707L2.53931 16.6745C2.73181 18.4987 3.48348 20.3779 7.51681 20.3779H14.5018C18.5351 20.3779 19.2868 18.4987 19.4793 16.6654L20.0568 10.4504C20.0476 10.4687 20.0293 10.487 20.011 10.4962C19.6168 10.7804 19.2135 11.0462 18.7918 11.2754Z" fill="var(--fill-0, #212121)"/>
<g id="Vector_3" opacity="0">
</g>
</g>
</svg>
