<svg preserveAspectRatio="none" width="100%" height="100%" overflow="visible" style="display: block;" viewBox="0 0 22 22" fill="none" xmlns="http://www.w3.org/2000/svg">
<g id="programming-arrow">
<g id="Vector" opacity="0">
</g>
<path id="Vector_2" opacity="0.4" d="M5.27083 14.7675V7.24166C6.45333 6.93916 7.33333 5.86666 7.33333 4.59249C7.33333 3.07083 6.105 1.84249 4.58333 1.84249C3.06167 1.84249 1.83333 3.07083 1.83333 4.59249C1.83333 5.87583 2.71333 6.93916 3.89583 7.24166V14.7675C2.71333 15.07 1.83333 16.1425 1.83333 17.4167C1.83333 18.9383 3.06167 20.1667 4.58333 20.1667C6.105 20.1667 7.33333 18.9383 7.33333 17.4167C7.33333 16.1333 6.45333 15.07 5.27083 14.7675Z" fill="var(--fill-0, #292D32)"/>
<path id="Vector_3" d="M18.1042 14.7675V5.95834C18.1042 4.56501 16.9767 3.43751 15.5833 3.43751H12.8975L14.19 2.36501C14.4833 2.11751 14.52 1.68668 14.2817 1.39334C14.0342 1.10001 13.6034 1.06334 13.31 1.30167L10.56 3.59334C10.4042 3.72167 10.3125 3.91417 10.3125 4.12501C10.3125 4.33584 10.4042 4.51917 10.56 4.65667L13.31 6.94834C13.4384 7.05834 13.5942 7.10417 13.75 7.10417C13.9425 7.10417 14.1442 7.02167 14.2817 6.85667C14.5292 6.56334 14.4833 6.1325 14.19 5.885L12.8975 4.81251H15.5833C16.2158 4.81251 16.7292 5.32584 16.7292 5.95834V14.7675C15.5467 15.07 14.6667 16.1425 14.6667 17.4167C14.6667 18.9383 15.895 20.1667 17.4167 20.1667C18.9383 20.1667 20.1667 18.9383 20.1667 17.4167C20.1667 16.1333 19.2867 15.07 18.1042 14.7675Z" fill="var(--fill-0, #292D32)"/>
</g>
</svg>
