<svg preserveAspectRatio="none" width="100%" height="100%" overflow="visible" style="display: block;" viewBox="0 0 24 24" fill="none" xmlns="http://www.w3.org/2000/svg">
<g id="notification-bing">
<path id="Vector" opacity="0.4" d="M20.4012 16.3298C20.1212 17.0798 19.5312 17.6498 18.7612 17.9098C17.6812 18.2698 16.5712 18.5398 15.4512 18.7298C15.3412 18.7498 15.2312 18.7698 15.1212 18.7798C14.9412 18.8098 14.7612 18.8298 14.5812 18.8498C14.3612 18.8798 14.1312 18.8998 13.9012 18.9198C13.2712 18.9698 12.6512 18.9998 12.0212 18.9998C11.3812 18.9998 10.7412 18.9698 10.1112 18.9098C9.84118 18.8898 9.58118 18.8598 9.32118 18.8198C9.17118 18.7998 9.02118 18.7798 8.88118 18.7598C8.77118 18.7398 8.66118 18.7298 8.55118 18.7098C7.44118 18.5298 6.34118 18.2598 5.27118 17.8998C4.47118 17.6298 3.86118 17.0598 3.59118 16.3298C3.32118 15.6098 3.42118 14.7698 3.85118 14.0498L4.98118 12.1698C5.22118 11.7598 5.44118 10.9698 5.44118 10.4898V8.6298C5.44118 4.9998 8.39118 2.0498 12.0212 2.0498C15.6412 2.0498 18.5912 4.9998 18.5912 8.6298V10.4898C18.5912 10.9698 18.8112 11.7598 19.0612 12.1698L20.1912 14.0498C20.6012 14.7498 20.6812 15.5698 20.4012 16.3298Z" fill="var(--fill-0, #18181B)"/>
<path id="Vector_2" d="M11.9983 10.7596C11.5783 10.7596 11.2383 10.4196 11.2383 9.99965V6.89965C11.2383 6.47965 11.5783 6.13965 11.9983 6.13965C12.4183 6.13965 12.7583 6.47965 12.7583 6.89965V9.99965C12.7483 10.4196 12.4083 10.7596 11.9983 10.7596Z" fill="var(--fill-0, #18181B)"/>
<path id="Vector_3" d="M14.8297 20.01C14.4097 21.17 13.2997 22 11.9997 22C11.2097 22 10.4297 21.68 9.87969 21.11C9.55969 20.81 9.31969 20.41 9.17969 20C9.30969 20.02 9.43969 20.03 9.57969 20.05C9.80969 20.08 10.0497 20.11 10.2897 20.13C10.8597 20.18 11.4397 20.21 12.0197 20.21C12.5897 20.21 13.1597 20.18 13.7197 20.13C13.9297 20.11 14.1397 20.1 14.3397 20.07C14.4997 20.05 14.6597 20.03 14.8297 20.01Z" fill="var(--fill-0, #18181B)"/>
<g id="Vector_4" opacity="0">
</g>
</g>
</svg>
