<svg preserveAspectRatio="none" width="100%" height="100%" overflow="visible" style="display: block;" viewBox="0 0 22 22" fill="none" xmlns="http://www.w3.org/2000/svg">
<g id="document-text">
<path id="Vector" opacity="0.4" d="M18.793 9.34148H16.1438C13.9713 9.34148 12.2021 7.57232 12.2021 5.39982V2.75065C12.2021 2.24648 11.7896 1.83398 11.2855 1.83398H7.3988C4.57547 1.83398 2.29297 3.66732 2.29297 6.93982V15.0615C2.29297 18.334 4.57547 20.1673 7.3988 20.1673H14.6038C17.4271 20.1673 19.7096 18.334 19.7096 15.0615V10.2582C19.7096 9.75398 19.2971 9.34148 18.793 9.34148Z" fill="var(--fill-0, #18181B)"/>
<path id="Vector_2" d="M14.4837 2.02627C14.1079 1.65044 13.457 1.90711 13.457 2.42961V5.62877C13.457 6.96711 14.5937 8.07627 15.9779 8.07627C16.8487 8.08544 18.0587 8.08544 19.0945 8.08544C19.617 8.08544 19.892 7.47127 19.5254 7.10461C18.2054 5.77544 15.8404 3.38294 14.4837 2.02627Z" fill="var(--fill-0, #18181B)"/>
<path id="Vector_3" d="M12.375 12.6045H6.875C6.49917 12.6045 6.1875 12.2928 6.1875 11.917C6.1875 11.5412 6.49917 11.2295 6.875 11.2295H12.375C12.7508 11.2295 13.0625 11.5412 13.0625 11.917C13.0625 12.2928 12.7508 12.6045 12.375 12.6045Z" fill="var(--fill-0, #18181B)"/>
<path id="Vector_4" d="M10.5417 16.2705H6.875C6.49917 16.2705 6.1875 15.9588 6.1875 15.583C6.1875 15.2072 6.49917 14.8955 6.875 14.8955H10.5417C10.9175 14.8955 11.2292 15.2072 11.2292 15.583C11.2292 15.9588 10.9175 16.2705 10.5417 16.2705Z" fill="var(--fill-0, #18181B)"/>
<g id="Vector_5" opacity="0">
</g>
</g>
</svg>
